<svg width="25" height="24" viewBox="0 0 25 24" fill="none" xmlns="http://www.w3.org/2000/svg">
    <path d="M14.1153 12.8946H10.3867V8.91919H14.1153V12.8946ZM11.3381 11.8798H13.1639V9.93405H11.3381V11.8798Z" fill="#9CB7C9"/>
    <path d="M15.7648 11.9941V12.4227H16.1934H18.0191H18.4477V11.9941V10.0476V9.619H18.0191H16.1934H15.7648V10.0476V11.9941ZM12.7331 10.363V11.4516H11.7645V10.363H12.7331ZM18.5419 12.5804H15.6705V9.46129H18.5419V12.5804Z" fill="#9CB7C9" stroke="#9CB7C9" stroke-width="0.857143"/>
    <path d="M6.05801 11.8798V12.3083H6.48658H8.3123H8.74087V11.8798V9.93405V9.50548H8.3123H6.48658H6.05801V9.93405V11.8798ZM17.5934 10.4758V11.5652H16.6249V10.4758H17.5934ZM8.83516 12.466H5.96373V9.34776H8.83516V12.466Z" fill="#9CB7C9" stroke="#9CB7C9" stroke-width="0.857143"/>
    <path d="M6.48438 11.8798H8.31009V9.93408H6.48438V11.8798ZM14.1129 17.9861H10.3844V14.0107H14.1129V17.9861ZM11.3358 16.9712H13.1615V15.0255H11.3358V16.9712Z" fill="#9CB7C9"/>
    <path d="M11.3359 16.9713H13.1617V15.0256H11.3359V16.9713ZM18.9697 18.1002H15.2419V14.1248H18.9705V18.1002H18.9697ZM16.1934 17.0853H18.0191V15.1396H16.1934V17.0853Z" fill="#9CB7C9"/>
    <path d="M16.1963 17.0856H18.022V15.1398H16.1963V17.0856ZM9.26373 17.9864H5.53516V14.011H9.26373V17.9864ZM6.48658 16.9716H8.3123V15.0258H6.48658V16.9716Z" fill="#9CB7C9"/>
    <path d="M6.48438 16.9713H8.31009V15.0256H6.48438V16.9713Z" fill="#9CB7C9"/>
    <path d="M19.6274 5.26705V19.5136H4.88112V5.26705H5.0594C5.13654 5.76163 5.31483 6.19877 5.60026 6.56048C5.81332 6.83566 6.08635 7.05859 6.39857 7.21233C6.71078 7.36606 7.05396 7.44653 7.40197 7.44763C8.10397 7.44763 8.75797 7.12448 9.20369 6.56048C9.48912 6.19877 9.6674 5.76163 9.74454 5.2662H14.776C14.8531 5.76163 15.0305 6.19877 15.316 6.56048C15.529 6.83566 15.8021 7.05859 16.1143 7.21233C16.4265 7.36606 16.7697 7.44653 17.1177 7.44763C17.8197 7.44763 18.4737 7.12448 18.9194 6.56048C19.2048 6.19877 19.3831 5.76163 19.4603 5.2662H19.6394L19.6274 5.26705ZM20.5908 4.2522H18.5097C18.7471 5.7042 17.9328 6.43363 17.1237 6.43363C16.3154 6.43363 15.4951 5.70505 15.7385 4.2522H8.78712C9.0254 5.7042 8.21112 6.43363 7.40197 6.43363C6.59369 6.43363 5.7734 5.70505 6.01683 4.2522H3.92969V20.5285H20.5788V4.2522H20.5908Z" fill="#9CB7C9" stroke="#9CB7C9" stroke-width="0.342857"/>
    <path d="M17.1099 2.78168C16.7584 2.78168 16.407 3.02168 16.4139 3.50425C16.479 4.12568 16.1164 5.72339 17.0859 5.72339H17.133C18.1024 5.72339 17.7399 4.12568 17.805 3.50425C17.811 3.02253 17.4604 2.78168 17.1099 2.78168ZM7.4173 2.76282H7.37016C6.40073 2.76282 6.7633 4.36053 6.69816 4.98196C6.69216 5.46368 7.04273 5.70453 7.3933 5.70453C7.74473 5.70453 8.0953 5.46368 8.0893 4.98196C8.02416 4.36053 8.38673 2.76196 7.4173 2.76196V2.76282Z" fill="#9CB7C9" stroke="#9CB7C9" stroke-width="0.342857"/>
    </svg>
    