<svg
  width="24"
  height="24"
  viewBox="0 0 24 24"
  fill="none"
  xmlns="http://www.w3.org/2000/svg"
>
    <g clip-path="url(#clip0_1_23)">
    <path
      d="M22.6122 3.37174V22.6283H1.37051V3.37174H1.62733C1.73845 4.04023 1.99527 4.6311 2.40642 5.12002C2.71333 5.49196 3.10662 5.79329 3.55636 6.00109C4.00611 6.20888 4.50044 6.31766 5.00175 6.31913C6.01296 6.31913 6.95504 5.88235 7.59708 5.12002C8.00823 4.6311 8.26505 4.04023 8.37617 3.37058H15.6238C15.735 4.04023 15.9905 4.6311 16.4017 5.12002C16.7086 5.49196 17.1019 5.79329 17.5516 6.00109C18.0014 6.20888 18.4957 6.31766 18.997 6.31913C20.0082 6.31913 20.9503 5.88235 21.5923 5.12002C22.0035 4.6311 22.2603 4.04023 22.3714 3.37058H22.6295L22.6122 3.37174ZM24 2H21.0022C21.3442 3.96261 20.1712 4.94855 19.0057 4.94855C17.8413 4.94855 16.6597 3.96377 17.0104 2H6.99702C7.34026 3.96261 6.1673 4.94855 5.00175 4.94855C3.83743 4.94855 2.65583 3.96377 3.00648 2H0V24H23.9827V2H24Z"
      fill="#304198"
      stroke="#304198"
      stroke-width="0.342857"
    />
    <path
      d="M18.9803 1.01997C18.4754 1.01997 17.9704 1.2631 17.9803 1.75195C18.0739 2.38148 17.553 4 18.9458 4H19.0136C20.4064 4 19.8855 2.38148 19.9791 1.75195C19.9877 1.26397 19.484 1.01997 18.9803 1.01997ZM5.05418 1.00087H4.98645C3.59359 1.00087 4.11452 2.61939 4.02093 3.24891C4.01231 3.7369 4.516 3.9809 5.0197 3.9809C5.52462 3.9809 6.02832 3.7369 6.0197 3.24891C5.9261 2.61939 6.44704 1 5.05418 1V1.00087Z"
      fill="#304198"
      stroke="#304198"
      stroke-width="0.342857"
    />
    <path d="M2 14H8V8H2V14Z" fill="#304198" />
    <path d="M2 21H8V15H2V21Z" fill="#304198" />
    <path d="M9 14H15V8H9V14Z" fill="#304198" />
    <path d="M9 21H15V15H9V21Z" fill="#304198" />
    <path d="M16 14H22V8H16V14Z" fill="#304198" />
    <path d="M16 21H22V15H16V21Z" fill="#304198" />
    </g>
    <defs>
    <clipPath id="clip0_1_23">
    <rect width="24" height="24" fill="white" />
    </clipPath>
    </defs>
    </svg>
