<?xml version="1.0" encoding="UTF-8"?><svg id="Layer_1" xmlns="http://www.w3.org/2000/svg" width="446.1129" height="44.985" viewBox="0 0 446.1129 44.985"><g id="Layer_2" style="opacity:.87;"><g id="Layer_1-2"><rect x="266.1257" y="2.2769" width="7.1552" height="42.2565" style="stroke-width:0px;"/><rect x="111.3141" y="2.2769" width="7.1552" height="42.2565" style="stroke-width:0px;"/><path d="M203.3315,37.3463V2.245h-7.1552v42.2565h21.6512l3.2843-7.1552h-17.7804Z" style="stroke-width:0px;"/><path d="M152.3878,2.2769h-30.3019v7.1552h12.4238v35.1013h7.1552V9.432h7.8198c.9644-2.3851,1.9321-4.7701,2.9031-7.1552Z" style="stroke-width:0px;"/><path d="M276.0374,2.305v7.1552h12.6388v35.0231h6.8424V9.4602h7.9274c.971-2.3851,1.9485-4.7701,2.9324-7.1552h-30.341Z" style="stroke-width:0px;"/><path d="M347.6317,2.4761l-8.8205-.1466-6.9694,12.0621-3.4896,5.7965-3.3723-6.0017v.2248l-6.9694-12.0817-7.8198.1466,14.8186,25.6589v16.3239h6.8424v-16.3435l15.7802-25.6393Z" style="stroke-width:0px;"/><rect x="404.2243" y="2.4039" width="2.8738" height="42.1294" style="stroke-width:0px;"/><path d="M422.5227,41.6505V2.3851h-2.864v42.1294h23.5866c.6256-.9775,1.2414-1.955,1.867-2.864h-22.5896Z" style="stroke-width:0px;"/><path d="M376.2194,0c-12.2923-.0216-22.2747,9.9258-22.2963,22.2181-.0216,12.2923,9.9258,22.2747,22.2181,22.2963s22.2747-9.9258,22.2963-22.2181c0-.013,0-.026,0-.0391C398.4322,9.9824,388.4942.027,376.2194,0ZM376.2194,41.4355c-10.5918,0-19.1782-8.5864-19.1782-19.1782s8.5863-19.1782,19.1782-19.1782c10.5918,0,19.1782,8.5864,19.1782,19.1782h0c.0054,10.5864-8.5722,19.1728-19.1586,19.1782h-.0195Z" style="stroke-width:0px;"/><path d="M171.957.664c-12.1142,0-21.9347,9.8205-21.9347,21.9347s9.8205,21.9347,21.9347,21.9347,21.9347-9.8205,21.9347-21.9347S184.0712.664,171.957.664h0ZM171.957,36.7624c-7.8224,0-14.1637-6.3413-14.1637-14.1637,0-7.8224,6.3413-14.1637,14.1637-14.1637,7.8224,0,14.1637,6.3413,14.1637,14.1637h0c.0108,7.817-6.3174,14.1627-14.1344,14.1735-.0098,0-.0195,0-.0293,0v-.0098Z" style="stroke-width:0px;"/><path d="M32.9298,32.0021c-4.9456,6.0537-13.8622,6.952-19.9159,2.0064-6.0537-4.9456-6.952-13.8622-2.0064-19.9159,4.9455-6.0537,13.8622-6.952,19.9158-2.0064.5482.4479,1.0621.9363,1.5372,1.461l5.7867-5.1611C30.1486-.623,16.28-1.361,7.2709,6.7377-1.7383,14.8364-2.4763,28.705,5.6224,37.7141c8.0987,9.0091,21.9674,9.7472,30.9765,1.6485.7595-.6827,1.4704-1.4177,2.1274-2.1994l-5.7965-5.1611Z" style="stroke-width:0px;"/><path d="M263.7016,36.6556c-7.7913,9.2763-21.6273,10.4801-30.9036,2.6887-9.2763-7.7913-10.48-21.6273-2.6887-30.9036,7.7913-9.2763,21.6273-10.4801,30.9036-2.6887.7819.6568,1.5171,1.3673,2.2,2.1265l-5.8649,5.1513c-5.2629-5.7946-14.2266-6.2256-20.0212-.9627-5.7945,5.2628-6.2256,14.2266-.9627,20.0212,5.2629,5.7946,14.2266,6.2256,20.0212.9627.5326-.4838,1.0277-1.0074,1.4808-1.5663l5.8356,5.1709Z" style="stroke-width:0px;"/><path d="M71.6674,44.4845h6.8424L62.6407,2.4528h-7.9787l-15.8086,42.0317h6.8424l3.3039-9.6673h19.2466l3.4212,9.6673ZM52.1088,27.6718l5.5851-15.5615h1.7021l4.8151,15.5615h-12.1023Z" style="stroke-width:0px;"/><path d="M107.9711,9.432c-3.3625-5.3566-6.6958-6.5882-8.465-6.9499-1.9627-.2253-3.9394-.3037-5.9137-.2346h-13.6945v38.4425l1.812,3.8433h5.3431v-15.4149c1.5249,0,3.7828.0587,6.5394,0,1.9746.0626,3.9511-.0191,5.9137-.2444,1.7692-.3617,5.1025-1.5933,8.465-6.9499,1.837-3.9751,1.837-8.5562,0-12.5313v.0391ZM87.053,21.9633v-12.5313h9.6184c3.4604.753,5.6552,4.1686,4.9023,7.6291-.5337,2.4527-2.4495,4.3685-4.9023,4.9023h-9.6184Z" style="stroke-width:0px;"/></g></g></svg>