<svg xmlns="http://www.w3.org/2000/svg" viewBox="0 0 507.85 324.44"><defs><style>.cls-1{fill:#cf202a}.cls-1,.cls-2,.cls-3,.cls-4{stroke:#939598}.cls-1,.cls-2,.cls-3,.cls-4,.cls-5{stroke-miterlimit:10}.cls-1,.cls-2,.cls-3{stroke-width:.75px}.cls-3{fill:#2e4297}.cls-4{fill:#231f20;stroke-width:.5px}.cls-5{fill:#0171ba;stroke:#a7a9ac;stroke-width:.25px}</style></defs><g id="Layer_2" data-name="Layer 2"><g id="Layer_1-2" data-name="Layer 1"><path d="M392.29 323.37a324.46 324.46 0 0 0-279.85.58l-11.64-20.36a375.87 375.87 0 0 1 303.13-1.46Z" class="cls-1"/><path d="M128 275.29a1.35 1.35 0 0 0 .72-1.17 202.24 202.24 0 0 1 23.39-89.85 1.37 1.37 0 0 0-1.84-1.85 91.81 91.81 0 0 0-25.16 18.86c-13.34 14.21-18.48 29-23.22 42.66a168.39 168.39 0 0 0-8.76 42.19l6.42 4.19ZM216.91 151.84a1.37 1.37 0 0 1 1.55 1.74A306.61 306.61 0 0 0 205.77 252a1.37 1.37 0 0 1-1.21 1.4 217.34 217.34 0 0 0-55.28 13.78 1.36 1.36 0 0 1-1.87-1.29 171.7 171.7 0 0 1 4.81-37.55c5-20.66 11.69-48.13 35.35-64.69a71.68 71.68 0 0 1 29.34-11.81ZM384.28 275.49a1.34 1.34 0 0 1-.73-1.16 202.24 202.24 0 0 0-23.39-89.86 1.37 1.37 0 0 1 1.84-1.85 92 92 0 0 1 25.17 18.86c13.33 14.21 18.47 29 23.21 42.66a168 168 0 0 1 8.77 42.2l-6.43 4.19ZM295.32 152.05a1.37 1.37 0 0 0-1.56 1.74 306.26 306.26 0 0 1 9.08 39.84 307.41 307.41 0 0 1 3.62 58.57 1.34 1.34 0 0 0 1.2 1.39A217.85 217.85 0 0 1 363 267.38a1.37 1.37 0 0 0 1.87-1.3 172.39 172.39 0 0 0-4.87-37.54c-5-20.67-11.68-48.14-35.34-64.69a71.66 71.66 0 0 0-29.34-11.8Z" class="cls-2"/><path d="M507.25 99.58q-31.68 63-63.34 126l-13 25.92c-1.67-3.62-14.83-31.86-30.32-50.4-5.48-6.55-11.79-12.84-11.79-12.84-5.52-5.51-9.8-9.78-15.49-13.77a74.5 74.5 0 0 0-24.17-11.05 67.59 67.59 0 0 0-18.37-13.39 56.42 56.42 0 0 0-10.47-4.15 42 42 0 0 0-12-1.2h-.68l-10-8.73c0-2.11.07-4.22.1-6.33v-3a9.54 9.54 0 0 0 1.64-1.69 4.86 4.86 0 0 0 1.33-3.28 3.47 3.47 0 0 0-.14-.66c-.6-1.94-10.05-16.29-12.84-20.51a12.5 12.5 0 0 0-1.76-7.33c-1.46-2.28-3.37-3.31-5.55-4.59A129.27 129.27 0 0 1 269 81.1c-.09-1.56-.61-10.3-2.93-16.9a28.6 28.6 0 0 0-2-4.81c-1.9-3.47-3.07-3.64-3.34-5.53-.4-2.79 2-3.64 2.05-6.51v-.43c-.14-2.35-1.58-2.52-2.91-6a14.33 14.33 0 0 1-.63-2.08 20.21 20.21 0 0 1-.48-3.7v-2a31.89 31.89 0 0 1 1.65-9.6c1.16-3.3 4.08-9.64 4.06-12.44 0-.22 0-.6-.25-.72-.79-.43-3.27 2.66-3.71 3.2-1.7 2.08-2 3.43-2.88 3.4-1.21-.06-1.44-2.89-3.52-3.33a1.74 1.74 0 0 0-1.24.07c-1.51.86.16 4.52-1.23 5.67s-5-1.57-5.74-.76c-.46.49.14 2.21 3.55 6.73a16.85 16.85 0 0 1 2 3.69 14.52 14.52 0 0 1 1 3.32c.05.31.09 1.13.16 2.74a16.56 16.56 0 0 1 0 3.7 13.25 13.25 0 0 1-.63 2.08 13.89 13.89 0 0 1-1.98 3.5 4.41 4.41 0 0 0-1 2.53v.43c.05 2.87 2.45 3.72 2.05 6.51-.27 1.89-1.44 2.06-3.34 5.53a28.6 28.6 0 0 0-2 4.81c-2.32 6.6-2.84 15.34-2.93 16.9a129.27 129.27 0 0 1-11.34 7.53c-2.18 1.28-4.09 2.31-5.55 4.59a12.5 12.5 0 0 0-1.76 7.33c-2.79 4.22-12.24 18.57-12.84 20.51a3.47 3.47 0 0 0-.14.66 4.86 4.86 0 0 0 1.33 3.28 9.54 9.54 0 0 0 1.64 1.69v3c0 2.11.07 4.22.1 6.33l-10 8.73h-.68a42 42 0 0 0-12.05 1.2 56.42 56.42 0 0 0-10.49 4.1 67.59 67.59 0 0 0-18.37 13.39 74.5 74.5 0 0 0-24.17 11.05c-5.69 4-10 8.26-15.49 13.77 0 0-6.31 6.29-11.79 12.84-15.49 18.54-28.65 46.78-30.32 50.4L.63 99l126.11 1.76Q113.51 75 100.27 49.31L75.25.67h.82L433.94.38l-24.83 48.38-7.88 15.34L383.32 99Z" class="cls-3"/><path d="M256.36 148c5.62-.14 14.51-.36 20.51 5.52 3.4 3.34 4.46 7.25 6.25 18.48 3.35 20.92 3.66 28.56 3.66 28.56.52 12.75.94 29.83.69 50.52a306.34 306.34 0 0 0-63.12 0c.2-20 .8-37 1.45-50.32 0 0 .43-8.85 3.65-27.16 2.18-12.37 3.54-16.05 6.69-19.2 6.05-6.07 14.79-6.28 20.22-6.4Z" class="cls-4"/><path d="m434.2.38-24.89 48.38-7.88 15.31h-.2a211.72 211.72 0 0 1-41.43 2.82c-29.31-.9-46.88-7.61-82.48-16.15q-6.79-1.64-13.21-3.15l-1.11-.24-.2-.05v-.38c-.14-2.35-1.58-2.52-2.91-6a14.33 14.33 0 0 1-.63-2.08 20.21 20.21 0 0 1-.48-3.7v-2a31.89 31.89 0 0 1 1.65-9.6c1.16-3.3 4.08-9.64 4.06-12.44 0-.22 0-.6-.25-.72-.79-.43-3.27 2.66-3.71 3.2-1.7 2.08-2 3.43-2.88 3.4-1.21-.06-1.44-2.89-3.52-3.33a1.74 1.74 0 0 0-1.24.07c-1.51.86.16 4.52-1.23 5.67s-5-1.57-5.74-.76c-.46.49.14 2.21 3.55 6.73a16.85 16.85 0 0 1 2 3.69 14.52 14.52 0 0 1 1 3.32c.05.31.09 1.13.16 2.74a16.56 16.56 0 0 1 0 3.7 13.25 13.25 0 0 1-.63 2.08 13.89 13.89 0 0 1-2 3.5l-1.88-.39a345.08 345.08 0 0 0-38.65-6.51C185.53 35 148.08 34.67 101 49.14l-.54.17L75.43.67h.64L433.94.38Z" class="cls-5"/></g></g></svg>