<svg width="12" height="16" viewBox="0 0 12 16" fill="none" xmlns="http://www.w3.org/2000/svg">
    <path d="M3.33398 3.99992V2.66659C3.33398 2.31296 3.47446 1.97382 3.72451 1.72378C3.97456 1.47373 4.3137 1.33325 4.66732 1.33325H7.33398C7.68761 1.33325 8.02674 1.47373 8.27679 1.72378C8.52684 1.97382 8.66732 2.31296 8.66732 2.66659V3.99992M10.6673 3.99992V13.3333C10.6673 13.6869 10.5268 14.026 10.2768 14.2761C10.0267 14.5261 9.68761 14.6666 9.33398 14.6666H2.66732C2.3137 14.6666 1.97456 14.5261 1.72451 14.2761C1.47446 14.026 1.33398 13.6869 1.33398 13.3333V3.99992H10.6673Z" stroke="#CA4A4F" stroke-width="2" stroke-linecap="round" stroke-linejoin="round"/>
    </svg>
    