<svg width="17" height="16" viewBox="0 0 17 16" fill="none" xmlns="http://www.w3.org/2000/svg">
<path d="M11.834 2.00004C12.0091 1.82494 12.2169 1.68605 12.4457 1.59129C12.6745 1.49653 12.9197 1.44775 13.1673 1.44775C13.4149 1.44775 13.6601 1.49653 13.8889 1.59129C14.1177 1.68605 14.3256 1.82494 14.5007 2.00004C14.6757 2.17513 14.8146 2.383 14.9094 2.61178C15.0042 2.84055 15.0529 3.08575 15.0529 3.33337C15.0529 3.58099 15.0042 3.82619 14.9094 4.05497C14.8146 4.28374 14.6757 4.49161 14.5007 4.66671L5.50065 13.6667L1.83398 14.6667L2.83398 11L11.834 2.00004Z" stroke="white" stroke-width="2" stroke-linecap="round" stroke-linejoin="round"/>
</svg>
