<svg width="16" height="22" viewBox="0 0 16 22" fill="none" xmlns="http://www.w3.org/2000/svg">
    <path d="M1.68492 7.4462V7.444C1.68492 3.93731 4.53975 1.08333 8.04559 1.08333C11.5523 1.08333 14.4063 3.93724 14.4063 7.444C14.4063 8.4055 14.1987 9.32517 13.7883 10.1835C13.7881 10.1838 13.788 10.1841 13.7878 10.1844L13.7669 10.2278L8.33819 20.7376L8.33777 20.7384C8.31012 20.792 8.26824 20.8371 8.21669 20.8685C8.16515 20.8999 8.10595 20.9165 8.04559 20.9165C7.98522 20.9165 7.92602 20.8999 7.87448 20.8685C7.82294 20.8371 7.78105 20.792 7.75341 20.7384L7.753 20.7376L2.32223 10.2228C1.90042 9.35816 1.68238 8.40831 1.68492 7.4462ZM4.7951 10.6946C5.45817 11.3579 6.30279 11.7979 7.21225 11.9664V12.0452L8.04647 12.0443C9.26566 12.043 10.4345 11.5581 11.2966 10.696C12.1587 9.83395 12.6436 8.66507 12.6449 7.44588L12.6449 7.4439C12.6433 6.22492 12.1583 5.05635 11.2962 4.19452C10.4341 3.33268 9.26545 2.84796 8.04647 2.84666L8.04448 2.84667C6.82593 2.84828 5.65773 3.33298 4.79597 4.19452C3.9342 5.05605 3.44919 6.22412 3.44725 7.44267L3.44725 7.44488C3.44855 8.66386 3.93327 9.83256 4.7951 10.6946Z" fill="#9CB7C9" stroke="#9CB7C9" stroke-width="1.66667"/>
    </svg>
    