<svg
  width="63"
  height="19"
  viewBox="0 0 63 19"
  fill="none"
  xmlns="http://www.w3.org/2000/svg"
>
    <path
    fill-rule="evenodd"
    clip-rule="evenodd"
    d="M48.8662 10.5507C48.6881 11.4028 48.0152 11.773 47.1997 11.8089C46.4912 11.8447 45.8499 11.2156 46.3131 10.4751C46.6693 9.84601 47.6629 9.6987 48.2645 9.6987H49.0443C48.9731 9.99333 48.9374 10.2521 48.8662 10.5507ZM48.6564 4.02907C47.1285 4.02907 45.9212 4.43518 44.9989 4.62231L44.7139 6.95546C45.177 6.73249 46.6297 6.32638 47.837 6.29055C49.0443 6.25471 49.7529 6.51351 49.5074 7.5487C45.9212 7.5487 43.5066 8.28925 43.0079 10.6224C42.2993 14.6238 46.6654 14.5123 48.4031 12.7724L48.1893 13.7359H51.3837L52.7691 7.36555C53.3431 4.65814 50.8929 3.99323 48.6564 4.02907ZM55.5083 1.50879L52.8641 13.7359H56.1099L58.7858 1.50879H55.5083ZM40.4904 5.69731C40.2766 6.62499 39.3504 7.36555 38.4597 7.36555H36.8606L37.5731 4.03305H39.2831C40.1658 4.02907 40.7002 4.76962 40.4904 5.69731ZM40.5933 1.5486H34.6518L32.0195 13.7359H35.4712L36.3618 9.6987H38.816C41.2345 9.6987 43.2295 8.21759 43.7639 5.69731C44.3656 2.84657 42.3033 1.5486 40.5933 1.5486Z"
    fill="#187FAE"
  />
    <path
    fill-rule="evenodd"
    clip-rule="evenodd"
    d="M17.7755 10.5507C17.6013 11.4027 16.8967 11.773 16.0932 11.8089C15.3926 11.8447 14.7948 11.2156 15.2501 10.4751C15.6023 9.84599 16.584 9.69868 17.1421 9.69868H17.9496C17.8823 9.99331 17.8111 10.2521 17.7755 10.5507ZM17.534 4.02905C16.0259 4.02905 14.8344 4.43516 13.9557 4.62229L13.6746 6.95544C14.0942 6.73247 15.5351 6.32636 16.7265 6.29053C17.918 6.25469 18.6226 6.51349 18.4088 7.54868C14.8661 7.54868 12.4832 8.28923 11.9923 10.6224C11.2917 14.6238 15.6063 14.5123 17.2886 12.7724L17.0788 13.7359H20.2692L21.6388 7.36553C22.1969 4.65812 19.7428 3.99321 17.534 4.02905ZM23.0242 4.20423H26.2186L26.7332 9.88182L29.8563 4.20423H33.1496L25.5655 17.789H21.9951L24.3305 13.7956L23.0242 4.20423ZM9.48672 5.69729C9.27297 6.62497 8.38234 7.36553 7.48776 7.36553H5.84901L6.59714 4.03303H8.3111C9.1661 4.02905 9.73609 4.7696 9.48672 5.69729ZM9.59359 1.54858H3.6363L0.996094 13.7359H4.4913L5.3463 9.69868H7.84401C10.2348 9.69868 12.2338 8.21756 12.7682 5.69729C13.3738 2.84655 11.3432 1.54858 9.59359 1.54858Z"
    fill="#195A7F"
  />
    <path
    d="M59.4855 3.08944V1.64814H58.9512V1.45703H60.2376V1.64814H59.7033V3.08944H59.4855ZM60.4514 3.08944V1.45703H60.772L61.156 2.61564C61.1916 2.72314 61.2193 2.80277 61.2351 2.85851C61.2549 2.79879 61.2826 2.7112 61.3222 2.59574L61.7101 1.46101H61.9991V3.09342H61.7933V1.72379L61.3183 3.09342H61.1243L60.6533 1.70388V3.09342H60.4514"
    fill="#195A7F"
  />
    </svg>