<svg width="25" height="24" viewBox="0 0 25 24" fill="none" xmlns="http://www.w3.org/2000/svg">
    <path d="M20.4363 14.5098C19.1763 14.5098 18.5563 15.0038 18.0213 15.3998C17.5553 15.7518 17.2183 16.0058 16.4763 16.0058C15.7343 16.0058 15.3983 15.7518 14.9233 15.3998C14.3883 15.0038 13.7333 14.5098 12.4733 14.5098C11.2133 14.5098 10.5583 15.0038 10.0233 15.3998C9.55734 15.7518 9.22034 16.0058 8.47834 16.0058C7.73634 16.0058 7.40034 15.7518 6.93434 15.3998C6.39934 15.0038 5.77834 14.5098 4.52734 14.5098V20.1258H20.4373L20.4363 14.5098Z" fill="#9CB7C9"/>
    <path d="M3.17578 10.596V20.477C3.17578 20.814 3.31778 21.143 3.56078 21.379C3.81078 21.615 4.14578 21.75 4.49778 21.75H20.6038C20.9548 21.75 21.2898 21.615 21.5408 21.38C21.7908 21.143 21.9258 20.814 21.9258 20.477V5.77298C21.9246 5.60461 21.89 5.43817 21.8239 5.28331C21.7578 5.12846 21.6615 4.9883 21.5408 4.87098C21.2869 4.63294 20.9518 4.50063 20.6038 4.50098H7.32578" stroke="#9CB7C9" stroke-width="1.6" stroke-miterlimit="10"/>
    <path d="M21.9258 10.596V20.477C21.9258 20.814 21.7838 21.143 21.5408 21.379C21.2871 21.6174 20.952 21.7501 20.6038 21.75H4.4978C4.1458 21.75 3.8118 21.615 3.5608 21.38C3.43836 21.2638 3.34102 21.1237 3.27481 20.9684C3.20859 20.8131 3.1749 20.6458 3.1758 20.477V5.773C3.1758 5.436 3.3178 5.107 3.5608 4.871C3.8108 4.635 4.1458 4.501 4.4978 4.501H17.7758M4.9488 2.25H11.1528M6.1758 3.75H9.9258" stroke="#9CB7C9" stroke-width="1.6" stroke-miterlimit="10"/>
    </svg>
    