<svg width="23" height="16" viewBox="0 0 23 16" fill="none" xmlns="http://www.w3.org/2000/svg">
<path fill-rule="evenodd" clip-rule="evenodd" d="M21.1818 12.9958C21.163 12.9427 21.1419 12.8904 21.1187 12.839V12.8308C21.0725 12.7281 21.0181 12.6293 20.956 12.5353C20.9255 12.4893 20.8935 12.4448 20.86 12.4018L20.848 12.3935C20.7795 12.3063 20.7042 12.2246 20.623 12.149C20.5833 12.1123 20.542 12.074 20.4992 12.0433L20.488 12.035C20.1163 11.7445 19.6581 11.5866 19.1864 11.5866C18.7146 11.5866 18.2564 11.7445 17.8848 12.035L17.8735 12.0433C17.8309 12.0769 17.7896 12.1122 17.7498 12.149C17.6685 12.2245 17.5933 12.3063 17.5247 12.3935L17.518 12.4025C17.4842 12.4457 17.4522 12.4903 17.422 12.536C17.36 12.63 17.3055 12.7288 17.2592 12.8315V12.8398C17.2362 12.8898 17.2153 12.942 17.1962 12.9965H10.321C10.1676 12.5641 9.87815 12.193 9.496 11.939H16.5783V5.94352H20.5982L21.0917 8.55277L22.2917 9.46927V11.9375H22.9262V12.995L21.1818 12.9958ZM20.248 6.36652H17.071V8.55277H20.596L20.248 6.36652ZM13.5438 10.88H2.40325C1.318 10.88 0.4375 8.82502 0.4375 6.29302C0.4375 3.76102 1.318 1.70602 2.40325 1.70602H4.369V1.10002C4.369 0.913042 4.44328 0.733722 4.57549 0.601509C4.7077 0.469296 4.88702 0.39502 5.074 0.39502H6.94075C7.12773 0.39502 7.30705 0.469296 7.43926 0.601509C7.57147 0.733722 7.64575 0.913042 7.64575 1.10002V1.70602H8.956V1.10002C8.956 0.913042 9.03028 0.733722 9.16249 0.601509C9.2947 0.469296 9.47402 0.39502 9.661 0.39502H11.527C11.714 0.39502 11.8933 0.469296 12.0255 0.601509C12.1577 0.733722 12.232 0.913042 12.232 1.10002V1.70602H13.5422C14.6283 1.70602 15.508 3.75952 15.508 6.29302C15.508 8.82652 14.629 10.88 13.5438 10.88ZM3.08725 12.9958H1.76725V11.9383H3.91225C3.5301 12.1923 3.24062 12.5633 3.08725 12.9958ZM5.08225 12.2908C5.3614 12.2905 5.63436 12.373 5.86658 12.5279C6.09881 12.6828 6.27986 12.9031 6.38683 13.161C6.49379 13.4188 6.52185 13.7026 6.46746 13.9764C6.41308 14.2502 6.27869 14.5017 6.0813 14.6991C5.88391 14.8965 5.6324 15.0308 5.35861 15.0852C5.08481 15.1396 4.80103 15.1116 4.54319 15.0046C4.28534 14.8976 4.06503 14.7166 3.91013 14.4844C3.75523 14.2521 3.6727 13.9792 3.673 13.7C3.6734 13.3264 3.822 12.9682 4.0862 12.704C4.3504 12.4398 4.70862 12.2912 5.08225 12.2908ZM8.32675 12.2908C8.6058 12.2909 8.87854 12.3738 9.11047 12.529C9.3424 12.6842 9.5231 12.9046 9.62972 13.1625C9.73634 13.4204 9.76408 13.7041 9.70944 13.9778C9.6548 14.2514 9.52023 14.5027 9.32275 14.6999C9.12528 14.897 8.87376 15.0312 8.60003 15.0854C8.32629 15.1396 8.04263 15.1114 7.78492 15.0044C7.5272 14.8974 7.30702 14.7163 7.15222 14.4841C6.99742 14.2519 6.91495 13.9791 6.91525 13.7C6.91565 13.3266 7.06404 12.9687 7.32792 12.7045C7.59179 12.4403 7.94963 12.2916 8.323 12.2908H8.32675ZM19.1875 12.2908C19.4664 12.2915 19.7389 12.3749 19.9704 12.5304C20.2019 12.686 20.3822 12.9067 20.4883 13.1646C20.5945 13.4225 20.6218 13.7061 20.5668 13.9796C20.5118 14.253 20.377 14.5041 20.1794 14.7009C19.9818 14.8978 19.7303 15.0316 19.4567 15.0856C19.183 15.1396 18.8995 15.1112 18.642 15.0041C18.3844 14.897 18.1644 14.7159 18.0098 14.4838C17.8551 14.2517 17.7727 13.9789 17.773 13.7C17.7732 13.5146 17.81 13.331 17.8812 13.1597C17.9524 12.9885 18.0567 12.833 18.1881 12.7021C18.3194 12.5712 18.4753 12.4675 18.6468 12.3969C18.8183 12.3264 19.002 12.2903 19.1875 12.2908Z" fill="#466171"/>
</svg>
